<svg version="1.0" xmlns="http://www.w3.org/2000/svg"
 width="300.000000pt" height="533.000000pt" viewBox="0 0 300.000000 533.000000"
 preserveAspectRatio="xMidYMid meet">
<metadata>
Created by potrace 1.10, written by Peter Selinger 2001-2011
</metadata>
<g transform="translate(0.000000,533.000000) scale(0.100000,-0.100000)"
fill="#000000" stroke="none">
<path d="M1028 2866 c-81 -29 -129 -80 -148 -158 -29 -114 33 -239 140 -285
57 -24 181 -13 254 23 61 29 134 89 123 100 -3 3 -32 -10 -64 -29 -93 -56
-130 -68 -215 -68 -65 0 -83 4 -117 25 -85 54 -117 175 -71 265 38 76 103 106
214 99 95 -6 184 -48 379 -179 214 -144 260 -164 369 -164 102 0 129 14 166
85 28 56 28 96 -1 150 -57 109 -226 120 -370 24 -21 -14 -42 -23 -45 -19 -11
10 37 45 106 78 53 25 77 30 141 30 90 1 125 -15 175 -76 29 -37 31 -44 31
-122 0 -78 -2 -85 -31 -122 -57 -70 -145 -88 -270 -53 -84 23 -143 55 -325
178 -208 140 -301 175 -400 152 -89 -22 -129 -72 -129 -163 0 -130 129 -201
274 -152 53 18 156 76 156 87 0 14 -20 9 -93 -24 -128 -57 -246 -47 -282 23
-24 45 -19 112 9 146 34 40 79 52 154 42 78 -11 121 -33 310 -158 176 -117
245 -154 329 -175 186 -48 323 32 340 200 7 65 -15 129 -60 180 -84 96 -249
100 -393 8 -57 -36 -71 -64 -44 -89 17 -15 23 -14 87 13 89 39 102 43 155 44
93 1 147 -39 155 -116 9 -86 -57 -141 -161 -134 -79 5 -155 41 -317 149 -69
46 -134 90 -145 97 -126 83 -294 121 -386 88z"/>
</g>
</svg>